<svg width="121" height="147" viewBox="0 0 121 147" fill="none" xmlns="http://www.w3.org/2000/svg">
<path opacity="0.39" d="M1 52C1 27.487 1 15.2304 8.61522 7.61522C16.2304 0 28.487 0 53 0L69 0C93.513 0 105.77 0 113.385 7.61522C121 15.2304 121 27.487 121 52V77.0514C121 90.6394 121 97.4334 117.937 103.172C114.874 108.91 109.23 112.691 97.9408 120.254L89.9408 125.613C75.9162 135.008 68.9038 139.705 61 139.705C53.0962 139.705 46.0838 135.008 32.0592 125.613L24.0592 120.254C12.7701 112.691 7.12559 108.91 4.06279 103.172C1 97.4334 1 90.6394 1 77.0514L1 52Z" fill="#8348E6"/>
<path d="M1.00024 58C1.00024 33.487 1.00024 21.2304 8.61547 13.6152C16.2307 6 28.4872 6 53.0002 6L69.0002 6C93.5133 6 105.77 6 113.385 13.6152C121 21.2304 121 33.487 121 58V85.9232C121 100.601 121 107.939 117.507 113.979C114.013 120.019 107.652 123.679 94.9294 130.997L86.9294 135.599C74.2731 142.88 67.945 146.52 61.0002 146.52C54.0555 146.52 47.7274 142.88 35.0711 135.599L27.0711 130.997C14.3486 123.679 7.98739 120.019 4.49382 113.979C1.00024 107.939 1.00024 100.601 1.00024 85.9232L1.00024 58Z" fill="#5425BD"/>
<path d="M1 52C1 27.487 1 15.2304 8.61522 7.61522C16.2304 0 28.487 0 53 0L69 0C93.513 0 105.77 0 113.385 7.61522C121 15.2304 121 27.487 121 52V79.9232C121 94.6006 121 101.939 117.506 107.979C114.013 114.019 107.652 117.679 94.9291 124.997L86.9291 129.599C74.2729 136.88 67.9448 140.52 61 140.52C54.0552 140.52 47.7271 136.88 35.0709 129.599L27.0709 124.997C14.3484 117.679 7.98714 114.019 4.49357 107.979C1 101.939 1 94.6006 1 79.9232L1 52Z" fill="url(#paint0_linear_194_19964)"/>
<path fill-rule="evenodd" clip-rule="evenodd" d="M69.0001 12H53.0001C40.4043 12 32.1647 12.0255 26.07 12.8449C20.3205 13.6179 18.307 14.8941 17.1006 16.1005C15.8942 17.3069 14.618 19.3204 13.845 25.0699C13.0256 31.1646 13.0001 59.4042 13.0001 72V79.9232C13.0001 87.4957 13.0135 92.3115 13.3787 96.0116C13.718 99.4485 14.2894 100.948 14.8812 101.971C15.4731 102.994 16.4879 104.237 19.2979 106.245C22.323 108.407 26.4908 110.82 33.0546 114.596L41.0546 119.198C47.5844 122.954 51.7431 125.331 55.1145 126.853C58.2459 128.266 59.8231 128.52 61.0001 128.52C62.177 128.52 63.7542 128.266 66.8857 126.853C70.2571 125.331 74.4157 122.954 80.9456 119.198L88.9455 114.596C95.5094 110.82 99.6771 108.407 102.702 106.245C105.512 104.237 106.527 102.994 107.119 101.971C107.711 100.948 108.282 99.4485 108.621 96.0116C108.987 92.3115 109 87.4956 109 79.9232V72C109 59.4042 108.975 31.1646 108.155 25.0699C107.382 19.3204 106.106 17.3069 104.9 16.1005C103.693 14.8941 101.68 13.6179 95.9302 12.8449C89.8355 12.0255 81.5958 12 69.0001 12ZM8.6153 7.61522C5.50024 11 3.11974 14.909 2.00024 24C0.660697 34.878 1.00007 52.3892 1.00007 72L1.00007 79.9232C1.00007 94.6006 1.00007 101.939 4.49364 107.979C7.98722 114.019 14.3485 117.679 27.071 124.997L35.0709 129.599C47.7272 136.88 54.0553 140.52 61.0001 140.52C67.9448 140.52 74.273 136.88 86.9292 129.599L94.9292 124.997C107.652 117.679 114.013 114.019 117.507 107.979C121 101.939 121 94.6006 121 79.9232V72C121 25.0699 121 15.2304 113.385 7.61522C105.77 0 93.5131 0 69.0001 0L53.0001 0C28.487 0 16.2305 0 8.6153 7.61522Z" fill="white" fill-opacity="0.21"/>
<path fill-rule="evenodd" clip-rule="evenodd" d="M69 13L53 13C40.3749 13 32.2155 13.0276 26.2032 13.836C20.5663 14.5938 18.798 15.8172 17.8076 16.8076C16.8172 17.798 15.5938 19.5663 14.836 25.2032C14.4365 28.1742 14.2243 36.6803 14.1151 46.1086C14.0064 55.4984 14 65.7021 14 72V79.9232C14 87.516 14.0146 92.2738 14.3738 95.9133C14.705 99.268 15.2512 100.614 15.7468 101.47C16.2424 102.327 17.1364 103.472 19.8792 105.432C22.8548 107.558 26.9716 109.943 33.5532 113.729L41.5532 118.331C48.1006 122.097 52.2097 124.444 55.5258 125.941C58.5823 127.321 60.0144 127.52 61 127.52C61.9856 127.52 63.4177 127.321 66.4742 125.941C69.7903 124.444 73.8994 122.097 80.4469 118.331L88.4468 113.729C95.0284 109.943 99.1452 107.558 102.121 105.432C104.864 103.472 105.758 102.327 106.253 101.47C106.749 100.614 107.295 99.268 107.626 95.9133C107.985 92.2738 108 87.516 108 79.9232V72C108 65.7021 107.994 55.4984 107.885 46.1086C107.776 36.6803 107.563 28.1742 107.164 25.2032C106.406 19.5663 105.183 17.798 104.192 16.8076C103.202 15.8172 101.434 14.5938 95.7969 13.836C89.7845 13.0276 81.6251 13 69 13ZM53 12L69 12C81.5958 12 89.8354 12.0255 95.9301 12.8449C101.68 13.6179 103.693 14.8941 104.899 16.1005C106.106 17.3069 107.382 19.3204 108.155 25.0699C108.975 31.1646 109 59.4042 109 72V79.9232C109 87.4956 108.987 92.3115 108.621 96.0116C108.282 99.4485 107.711 100.948 107.119 101.971C106.527 102.994 105.512 104.237 102.702 106.245C99.6771 108.407 95.5093 110.82 88.9455 114.596L80.9455 119.198C74.4156 122.954 70.257 125.331 66.8856 126.853C63.7541 128.266 62.177 128.52 61 128.52C59.823 128.52 58.2459 128.266 55.1144 126.853C51.743 125.331 47.5844 122.954 41.0545 119.198L33.0545 114.596C26.4907 110.82 22.3229 108.407 19.2978 106.245C16.4878 104.237 15.473 102.994 14.8812 101.971C14.2893 100.948 13.7179 99.4485 13.3787 96.0116C13.0135 92.3115 13 87.4957 13 79.9232V72C13 59.4042 13.0255 31.1646 13.8449 25.0699C14.6179 19.3204 15.8941 17.3069 17.1005 16.1005C18.3069 14.8941 20.3204 13.6179 26.0699 12.8449C32.1646 12.0255 40.4042 12 53 12Z" fill="url(#paint1_linear_194_19964)"/>
<path d="M74.093 76.1002L86.9012 68.8332C87.5786 68.4484 88 67.7319 88 66.9623V52.4261C88 51.6576 87.5786 50.9399 86.9012 50.5552L74.093 43.2882C73.4155 42.9034 72.5727 42.9045 71.8953 43.2882L59.0871 50.5552C58.4097 50.9399 57.9883 51.6565 57.9883 52.4261V78.401L49.007 83.4958L40.0258 78.401V68.2081L49.007 63.1133L54.9317 66.4737V59.6366L50.1058 56.8991C49.7729 56.7107 49.3928 56.6114 49.007 56.6114C48.6212 56.6114 48.2412 56.7107 47.9082 56.8991L35.0988 64.1672C34.4214 64.552 34 65.2685 34 66.0381V80.5732C34 81.3417 34.4214 82.0594 35.0988 82.4441L47.907 89.7123C48.5845 90.0959 49.4261 90.0959 50.1047 89.7123L62.9129 82.4453C63.5903 82.0605 64.0117 81.3428 64.0117 80.5744V54.5994L64.1736 54.508L72.993 49.5046L81.9742 54.6005V64.7924L72.993 69.8883L67.0774 66.5324V73.3694L71.8942 76.1036C72.5716 76.4872 73.4144 76.4872 74.0918 76.1036L74.093 76.1002Z" fill="url(#paint2_linear_194_19964)"/>
<path fill-rule="evenodd" clip-rule="evenodd" d="M86.9012 68.8332L74.093 76.1002L74.0918 76.1036C73.4144 76.4872 72.5716 76.4872 71.8942 76.1036L67.0774 73.3694V66.5324L72.993 69.8883L81.9742 64.7924V54.6005L72.993 49.5046L64.1736 54.508L64.0117 54.5994V80.5744C64.0117 81.3428 63.5903 82.0605 62.9129 82.4453L50.1047 89.7123C49.4261 90.0959 48.5845 90.0959 47.907 89.7123L35.0988 82.4441C34.4214 82.0594 34 81.3417 34 80.5732V66.0381C34 65.2685 34.4214 64.552 35.0988 64.1672L47.9082 56.8991C48.2412 56.7107 48.6212 56.6114 49.007 56.6114C49.3928 56.6114 49.7729 56.7107 50.1058 56.8991L54.9317 59.6366V66.4737L49.007 63.1133L40.0258 68.2081V78.401L49.007 83.4958L57.9883 78.401V52.4261C57.9883 51.6565 58.4097 50.9399 59.0871 50.5552L71.8953 43.2882C72.5727 42.9045 73.4155 42.9034 74.093 43.2882L86.9012 50.5552C87.5786 50.9399 88 51.6576 88 52.4261V66.9623C88 67.7319 87.5786 68.4484 86.9012 68.8332ZM74.5869 42.4186C73.6022 41.8594 72.3847 41.8618 71.4025 42.418L58.5936 49.6854C57.6088 50.2448 56.9883 51.2904 56.9883 52.4261V77.8186L49.007 82.3461L41.0258 77.8186V68.7905L49.0071 64.263L55.9317 68.1905V59.0542L50.5992 56.0293C50.1142 55.7548 49.5633 55.6114 49.007 55.6114C48.4507 55.6114 47.9007 55.7543 47.4157 56.0288L34.6053 63.2975C33.6206 63.8568 33 64.9025 33 66.0381V80.5732C33 81.7075 33.6199 82.7542 34.6049 83.3137L47.4135 90.582C48.3969 91.1389 49.6131 91.1389 50.5969 90.5828L63.4064 83.315C64.3914 82.7555 65.0117 81.7086 65.0117 80.5744V55.1822L72.993 50.6543L80.9742 55.1829V64.21L72.9929 68.7385L66.0774 64.8154V73.9517L71.4005 76.9732C72.3837 77.53 73.6015 77.5305 74.5846 76.9737L74.9162 76.7859L74.9175 76.7821L87.3946 69.703C88.3794 69.1436 89 68.0979 89 66.9623V52.4261C89 51.2918 88.3801 50.2451 87.3951 49.6856L74.5869 42.4186Z" fill="url(#paint3_linear_194_19964)"/>
<defs>
<linearGradient id="paint0_linear_194_19964" x1="61" y1="-10" x2="36.5007" y2="97.8338" gradientUnits="userSpaceOnUse">
<stop stop-color="#8246E5"/>
<stop offset="1" stop-color="#6424D5"/>
</linearGradient>
<linearGradient id="paint1_linear_194_19964" x1="42" y1="127" x2="111" y2="-20" gradientUnits="userSpaceOnUse">
<stop stop-color="white" stop-opacity="0.5"/>
<stop offset="1" stop-color="white" stop-opacity="0"/>
</linearGradient>
<linearGradient id="paint2_linear_194_19964" x1="61.5625" y1="40.0625" x2="58.9891" y2="68.3538" gradientUnits="userSpaceOnUse">
<stop stop-color="white"/>
<stop offset="0.0001" stop-color="white" stop-opacity="0.6"/>
<stop offset="1" stop-color="white"/>
</linearGradient>
<linearGradient id="paint3_linear_194_19964" x1="52.8333" y1="86.6248" x2="62.3674" y2="44.4022" gradientUnits="userSpaceOnUse">
<stop stop-opacity="0.3"/>
<stop offset="1" stop-opacity="0.15"/>
</linearGradient>
</defs>
</svg>
